<svg xmlns="http://www.w3.org/2000/svg" xmlns:xlink="http://www.w3.org/1999/xlink" width="1069" height="1297" viewBox="0 0 1069 1297">
<rect x="0" y="0" width="1069" height="1297" fill="#FFFFFF"/>
<rect x="1.5" y="1.5" width="1066" height="1294" rx="10" fill="none" stroke="#111111" stroke-width="3.0"/>
<text x="36" y="32" font-family="Helvetica" font-size="11" fill="#6B7280" letter-spacing="2">PIPELYT GTM · GTM/LINKEDIN/SEQUENCE_ENGINE.PY</text>
<text x="36" y="64" font-family="Helvetica" font-size="22" font-weight="700" fill="#111111">LinkedIn Sequence Engine — Branching State Machine</text>
<text x="36" y="82" font-family="Helvetica" font-size="12" fill="#6B7280">sequence_engine.py — transitions after each browser action</text>
<line x1="36" y1="96" x2="1033.0" y2="96" stroke="#E5E7EB" stroke-width="1"/>
<g transform="translate(36,106)"><text x="142.5" y="61.6" font-family="Helvetica" font-size="12" font-weight="700" fill="#10B981">First Touch</text><g transform="translate(328.3,52.0)"><!-- Generated by graphviz version 12.2.1 (20241206.2353)
 -->
<!-- Title: G Pages: 1 -->

<g id="graph0" class="graph" transform="scale(1 1) rotate(0) translate(21.6 93.6)">
<title>G</title>
<!-- new -->
<g id="node1" class="node">
<title>new</title>
<path fill="white" stroke="#475569" stroke-width="2" d="M512.58,-72C512.58,-72 414.18,-72 414.18,-72 408.18,-72 402.18,-66 402.18,-60 402.18,-60 402.18,-12 402.18,-12 402.18,-6 408.18,0 414.18,0 414.18,0 512.58,0 512.58,0 518.58,0 524.58,-6 524.58,-12 524.58,-12 524.58,-60 524.58,-60 524.58,-66 518.58,-72 512.58,-72"/>
<text text-anchor="start" x="450.25" y="-42.55" font-family="Helvetica,sans-Serif" font-weight="bold" font-size="11.00" fill="#1f2937">NEW</text>
<text text-anchor="start" x="436.38" y="-21.95" font-family="Helvetica,sans-Serif" font-size="9.00" fill="#6b7280">lead enrolled</text>
</g>
<!-- connreq -->
<g id="node2" class="node">
<title>connreq</title>
<path fill="white" stroke="#10b981" stroke-width="2" d="M361.18,-72C361.18,-72 163.4,-72 163.4,-72 157.4,-72 151.4,-66 151.4,-60 151.4,-60 151.4,-12 151.4,-12 151.4,-6 157.4,0 163.4,0 163.4,0 361.18,0 361.18,0 367.18,0 373.18,-6 373.18,-12 373.18,-12 373.18,-60 373.18,-60 373.18,-66 367.18,-72 361.18,-72"/>
<text text-anchor="start" x="208.67" y="-42.55" font-family="Helvetica,sans-Serif" font-weight="bold" font-size="11.00" fill="#065f46">Connection Request</text>
<text text-anchor="start" x="164.04" y="-21.95" font-family="Helvetica,sans-Serif" font-size="9.00" fill="#6b7280">send_connection_request / connect_and_inmail</text>
</g>
<!-- new&#45;&gt;connreq -->
<g id="edge1" class="edge">
<title>new&#45;&gt;connreq</title>
<path fill="none" stroke="#2563eb" stroke-width="1.9" d="M401.41,-36C401.41,-36 384.92,-36 384.92,-36"/>
<polygon fill="#2563eb" stroke="#2563eb" stroke-width="1.9" points="384.92,-33.2 376.92,-36 384.92,-38.8 384.92,-33.2"/>
</g>
<!-- sent -->
<g id="node3" class="node">
<title>sent</title>
<path fill="white" stroke="#475569" stroke-width="2" d="M110.4,-72C110.4,-72 12,-72 12,-72 6,-72 0,-66 0,-60 0,-60 0,-12 0,-12 0,-6 6,0 12,0 12,0 110.4,0 110.4,0 116.4,0 122.4,-6 122.4,-12 122.4,-12 122.4,-60 122.4,-60 122.4,-66 116.4,-72 110.4,-72"/>
<text text-anchor="start" x="35.7" y="-42.55" font-family="Helvetica,sans-Serif" font-weight="bold" font-size="11.00" fill="#1f2937">PENDING</text>
<text text-anchor="start" x="40.57" y="-21.95" font-family="Helvetica,sans-Serif" font-size="9.00" fill="#6b7280">invite sent</text>
</g>
<!-- connreq&#45;&gt;sent -->
<g id="edge2" class="edge">
<title>connreq&#45;&gt;sent</title>
<path fill="none" stroke="#2563eb" stroke-width="1.9" d="M150.57,-36C150.57,-36 134.23,-36 134.23,-36"/>
<polygon fill="#2563eb" stroke="#2563eb" stroke-width="1.9" points="134.23,-33.2 126.23,-36 134.23,-38.8 134.23,-33.2"/>
</g>
</g></g><text x="142.5" y="255.6" font-family="Helvetica" font-size="12" font-weight="700" fill="#475569">Acceptance Check (+2d)</text><g transform="translate(128.1,246.0)"><!-- Generated by graphviz version 12.2.1 (20241206.2353)
 -->
<!-- Title: G Pages: 1 -->

<g id="graph0" class="graph" transform="scale(1 1) rotate(0) translate(21.6 201.6)">
<title>G</title>
<!-- checkacc -->
<g id="node1" class="node">
<title>checkacc</title>
<polygon fill="#ecfeff" stroke="#06b6d4" stroke-width="1.8" points="295.6,-125 234.4,-89 295.6,-53 356.8,-89 295.6,-125"/>
<text text-anchor="middle" x="295.6" y="-85.3" font-family="Helvetica,sans-Serif" font-size="11.00" fill="#155e75">Accepted?</text>
</g>
<!-- __lbl_0 -->
<g id="node4" class="node">
<title>__lbl_0</title>
<path fill="white" stroke="#dc2626" stroke-width="1.1" d="M199.72,-138.52C199.72,-138.52 157.08,-138.52 157.08,-138.52 154.24,-138.52 151.4,-135.68 151.4,-132.84 151.4,-132.84 151.4,-127.16 151.4,-127.16 151.4,-124.32 154.24,-121.48 157.08,-121.48 157.08,-121.48 199.72,-121.48 199.72,-121.48 202.56,-121.48 205.4,-124.32 205.4,-127.16 205.4,-127.16 205.4,-132.84 205.4,-132.84 205.4,-135.68 202.56,-138.52 199.72,-138.52"/>
<text text-anchor="middle" x="178.4" y="-126.5" font-family="Helvetica,sans-Serif" font-size="10.00" fill="#374151">no</text>
</g>
<!-- checkacc&#45;&gt;__lbl_0 -->
<g id="edge1" class="edge">
<title>checkacc&#45;&gt;__lbl_0</title>
<path fill="none" stroke="#dc2626" stroke-width="1.8" d="M277.22,-114.74C244.15,-114.74 178,-114.74 178,-114.74 178,-114.74 178,-117.87 178,-121.3"/>
</g>
<!-- __lbl_1 -->
<g id="node5" class="node">
<title>__lbl_1</title>
<path fill="white" stroke="#dc2626" stroke-width="1.1" d="M199.72,-71.52C199.72,-71.52 157.08,-71.52 157.08,-71.52 154.24,-71.52 151.4,-68.68 151.4,-65.84 151.4,-65.84 151.4,-60.16 151.4,-60.16 151.4,-57.32 154.24,-54.48 157.08,-54.48 157.08,-54.48 199.72,-54.48 199.72,-54.48 202.56,-54.48 205.4,-57.32 205.4,-60.16 205.4,-60.16 205.4,-65.84 205.4,-65.84 205.4,-68.68 202.56,-71.52 199.72,-71.52"/>
<text text-anchor="middle" x="178.4" y="-59.5" font-family="Helvetica,sans-Serif" font-size="10.00" fill="#374151">yes</text>
</g>
<!-- checkacc&#45;&gt;__lbl_1 -->
<g id="edge3" class="edge">
<title>checkacc&#45;&gt;__lbl_1</title>
<path fill="none" stroke="#dc2626" stroke-width="1.8" d="M277.8,-63C258.59,-63 227.76,-63 205.53,-63"/>
</g>
<!-- accepted -->
<g id="node2" class="node">
<title>accepted</title>
<path fill="#16a34a" stroke="#15803d" stroke-width="1.6" d="M110.4,-72C110.4,-72 12,-72 12,-72 6,-72 0,-66 0,-60 0,-60 0,-12 0,-12 0,-6 6,0 12,0 12,0 110.4,0 110.4,0 116.4,0 122.4,-6 122.4,-12 122.4,-12 122.4,-60 122.4,-60 122.4,-66 116.4,-72 110.4,-72"/>
<text text-anchor="middle" x="61.2" y="-32.3" font-family="Helvetica,sans-Serif" font-size="11.00" fill="#ffffff">ACCEPTED</text>
</g>
<!-- declined -->
<g id="node3" class="node">
<title>declined</title>
<path fill="#f59e0b" stroke="#d97706" stroke-width="1.6" d="M110.4,-180C110.4,-180 12,-180 12,-180 6,-180 0,-174 0,-168 0,-168 0,-120 0,-120 0,-114 6,-108 12,-108 12,-108 110.4,-108 110.4,-108 116.4,-108 122.4,-114 122.4,-120 122.4,-120 122.4,-168 122.4,-168 122.4,-174 116.4,-180 110.4,-180"/>
<text text-anchor="middle" x="61.2" y="-140.3" font-family="Helvetica,sans-Serif" font-size="11.00" fill="#1f2937">NOT ACCEPTED</text>
</g>
<!-- __lbl_0&#45;&gt;declined -->
<g id="edge2" class="edge">
<title>__lbl_0&#45;&gt;declined</title>
<path fill="none" stroke="#dc2626" stroke-width="1.8" d="M150.92,-130C150.92,-130 133.48,-130 133.48,-130"/>
<polygon fill="#dc2626" stroke="#dc2626" stroke-width="1.8" points="133.48,-127.2 125.48,-130 133.48,-132.8 133.48,-127.2"/>
</g>
<!-- __lbl_1&#45;&gt;accepted -->
<g id="edge4" class="edge">
<title>__lbl_1&#45;&gt;accepted</title>
<path fill="none" stroke="#dc2626" stroke-width="1.8" d="M150.92,-63C150.92,-63 133.48,-63 133.48,-63"/>
<polygon fill="#dc2626" stroke="#dc2626" stroke-width="1.8" points="133.48,-60.2 125.48,-63 133.48,-65.8 133.48,-60.2"/>
</g>
</g></g><text x="142.5" y="557.6" font-family="Helvetica" font-size="12" font-weight="700" fill="#EF4444">Not Accepted → InMail Branch</text><g transform="translate(124.9,548.0)"><!-- Generated by graphviz version 12.2.1 (20241206.2353)
 -->
<!-- Title: G Pages: 1 -->

<g id="graph0" class="graph" transform="scale(1 1) rotate(0) translate(21.6 93.6)">
<title>G</title>
<!-- inm1 -->
<g id="node1" class="node">
<title>inm1</title>
<path fill="white" stroke="#ef4444" stroke-width="2" d="M116.78,-72C116.78,-72 12,-72 12,-72 6,-72 0,-66 0,-60 0,-60 0,-12 0,-12 0,-6 6,0 12,0 12,0 116.78,0 116.78,0 122.78,0 128.78,-6 128.78,-12 128.78,-12 128.78,-60 128.78,-60 128.78,-66 122.78,-72 116.78,-72"/>
<text text-anchor="start" x="42.64" y="-42.55" font-family="Helvetica,sans-Serif" font-weight="bold" font-size="11.00" fill="#7f1d1d">inmail_1</text>
<text text-anchor="start" x="12.64" y="-21.95" font-family="Helvetica,sans-Serif" font-size="9.00" fill="#6b7280">skipped if no InMail credit</text>
</g>
<!-- inm2 -->
<g id="node2" class="node">
<title>inm2</title>
<path fill="white" stroke="#ef4444" stroke-width="2" d="M268.18,-72C268.18,-72 169.78,-72 169.78,-72 163.78,-72 157.78,-66 157.78,-60 157.78,-60 157.78,-12 157.78,-12 157.78,-6 163.78,0 169.78,0 169.78,0 268.18,0 268.18,0 274.18,0 280.18,-6 280.18,-12 280.18,-12 280.18,-60 280.18,-60 280.18,-66 274.18,-72 268.18,-72"/>
<text text-anchor="start" x="177.73" y="-33.3" font-family="Helvetica,sans-Serif" font-weight="bold" font-size="11.00" fill="#7f1d1d">inmail_followup</text>
</g>
<!-- inm1&#45;&gt;inm2 -->
<g id="edge1" class="edge">
<title>inm1&#45;&gt;inm2</title>
<path fill="none" stroke="#7c3aed" stroke-width="1.8" stroke-dasharray="5,2" d="M129.5,-36C129.5,-36 146.18,-36 146.18,-36"/>
<polygon fill="#7c3aed" stroke="#7c3aed" stroke-width="1.8" points="146.18,-38.8 154.18,-36 146.18,-33.2 146.18,-38.8"/>
</g>
<!-- inm3 -->
<g id="node3" class="node">
<title>inm3</title>
<path fill="white" stroke="#ef4444" stroke-width="2" d="M419.58,-72C419.58,-72 321.18,-72 321.18,-72 315.18,-72 309.18,-66 309.18,-60 309.18,-60 309.18,-12 309.18,-12 309.18,-6 315.18,0 321.18,0 321.18,0 419.58,0 419.58,0 425.58,0 431.58,-6 431.58,-12 431.58,-12 431.58,-60 431.58,-60 431.58,-66 425.58,-72 419.58,-72"/>
<text text-anchor="start" x="323.13" y="-33.3" font-family="Helvetica,sans-Serif" font-weight="bold" font-size="11.00" fill="#7f1d1d">inmail_followup_2</text>
</g>
<!-- inm2&#45;&gt;inm3 -->
<g id="edge2" class="edge">
<title>inm2&#45;&gt;inm3</title>
<path fill="none" stroke="#7c3aed" stroke-width="1.8" stroke-dasharray="5,2" d="M281,-36C281,-36 297.49,-36 297.49,-36"/>
<polygon fill="#7c3aed" stroke="#7c3aed" stroke-width="1.8" points="297.49,-38.8 305.49,-36 297.49,-33.2 297.49,-38.8"/>
</g>
<!-- closei -->
<g id="node4" class="node">
<title>closei</title>
<path fill="white" stroke="#ef4444" stroke-width="2" d="M570.98,-72C570.98,-72 472.58,-72 472.58,-72 466.58,-72 460.58,-66 460.58,-60 460.58,-60 460.58,-12 460.58,-12 460.58,-6 466.58,0 472.58,0 472.58,0 570.98,0 570.98,0 576.98,0 582.98,-6 582.98,-12 582.98,-12 582.98,-60 582.98,-60 582.98,-66 576.98,-72 570.98,-72"/>
<text text-anchor="start" x="489.15" y="-33.3" font-family="Helvetica,sans-Serif" font-weight="bold" font-size="11.00" fill="#7f1d1d">close_inmail</text>
</g>
<!-- inm3&#45;&gt;closei -->
<g id="edge3" class="edge">
<title>inm3&#45;&gt;closei</title>
<path fill="none" stroke="#7c3aed" stroke-width="1.8" stroke-dasharray="5,2" d="M432.4,-36C432.4,-36 448.89,-36 448.89,-36"/>
<polygon fill="#7c3aed" stroke="#7c3aed" stroke-width="1.8" points="448.89,-38.8 456.89,-36 448.89,-33.2 448.89,-38.8"/>
</g>
</g></g><text x="142.5" y="751.6" font-family="Helvetica" font-size="12" font-weight="700" fill="#8B5CF6">Accepted → Message Branch</text><g transform="translate(124.9,742.0)"><!-- Generated by graphviz version 12.2.1 (20241206.2353)
 -->
<!-- Title: G Pages: 1 -->

<g id="graph0" class="graph" transform="scale(1 1) rotate(0) translate(21.6 93.6)">
<title>G</title>
<!-- msg1 -->
<g id="node1" class="node">
<title>msg1</title>
<path fill="white" stroke="#8b5cf6" stroke-width="2" d="M110.4,-72C110.4,-72 12,-72 12,-72 6,-72 0,-66 0,-60 0,-60 0,-12 0,-12 0,-6 6,0 12,0 12,0 110.4,0 110.4,0 116.4,0 122.4,-6 122.4,-12 122.4,-12 122.4,-60 122.4,-60 122.4,-66 116.4,-72 110.4,-72"/>
<text text-anchor="start" x="31.95" y="-33.3" font-family="Helvetica,sans-Serif" font-weight="bold" font-size="11.00" fill="#4c1d95">message_1</text>
</g>
<!-- chkr1 -->
<g id="node2" class="node">
<title>chkr1</title>
<path fill="white" stroke="#475569" stroke-width="2" d="M261.8,-72C261.8,-72 163.4,-72 163.4,-72 157.4,-72 151.4,-66 151.4,-60 151.4,-60 151.4,-12 151.4,-12 151.4,-6 157.4,0 163.4,0 163.4,0 261.8,0 261.8,0 267.8,0 273.8,-6 273.8,-12 273.8,-12 273.8,-60 273.8,-60 273.8,-66 267.8,-72 261.8,-72"/>
<text text-anchor="start" x="175.1" y="-42.55" font-family="Helvetica,sans-Serif" font-weight="bold" font-size="11.00" fill="#1f2937">check_reply_1</text>
<text text-anchor="start" x="183.73" y="-21.95" font-family="Helvetica,sans-Serif" font-size="9.00" fill="#6b7280">reply → STOP</text>
</g>
<!-- msg1&#45;&gt;chkr1 -->
<g id="edge1" class="edge">
<title>msg1&#45;&gt;chkr1</title>
<path fill="none" stroke="#2563eb" stroke-width="1.9" d="M123.22,-36C123.22,-36 139.56,-36 139.56,-36"/>
<polygon fill="#2563eb" stroke="#2563eb" stroke-width="1.9" points="139.56,-38.8 147.56,-36 139.56,-33.2 139.56,-38.8"/>
</g>
<!-- msg2 -->
<g id="node3" class="node">
<title>msg2</title>
<path fill="white" stroke="#8b5cf6" stroke-width="2" d="M413.2,-72C413.2,-72 314.8,-72 314.8,-72 308.8,-72 302.8,-66 302.8,-60 302.8,-60 302.8,-12 302.8,-12 302.8,-6 308.8,0 314.8,0 314.8,0 413.2,0 413.2,0 419.2,0 425.2,-6 425.2,-12 425.2,-12 425.2,-60 425.2,-60 425.2,-66 419.2,-72 413.2,-72"/>
<text text-anchor="start" x="334.75" y="-33.3" font-family="Helvetica,sans-Serif" font-weight="bold" font-size="11.00" fill="#4c1d95">message_2</text>
</g>
<!-- chkr1&#45;&gt;msg2 -->
<g id="edge2" class="edge">
<title>chkr1&#45;&gt;msg2</title>
<path fill="none" stroke="#2563eb" stroke-width="1.9" d="M274.62,-36C274.62,-36 290.96,-36 290.96,-36"/>
<polygon fill="#2563eb" stroke="#2563eb" stroke-width="1.9" points="290.96,-38.8 298.96,-36 290.96,-33.2 290.96,-38.8"/>
</g>
<!-- chkr2 -->
<g id="node4" class="node">
<title>chkr2</title>
<path fill="white" stroke="#475569" stroke-width="2" d="M564.6,-72C564.6,-72 466.2,-72 466.2,-72 460.2,-72 454.2,-66 454.2,-60 454.2,-60 454.2,-12 454.2,-12 454.2,-6 460.2,0 466.2,0 466.2,0 564.6,0 564.6,0 570.6,0 576.6,-6 576.6,-12 576.6,-12 576.6,-60 576.6,-60 576.6,-66 570.6,-72 564.6,-72"/>
<text text-anchor="start" x="477.9" y="-42.55" font-family="Helvetica,sans-Serif" font-weight="bold" font-size="11.00" fill="#1f2937">check_reply_2</text>
<text text-anchor="start" x="486.52" y="-21.95" font-family="Helvetica,sans-Serif" font-size="9.00" fill="#6b7280">reply → STOP</text>
</g>
<!-- msg2&#45;&gt;chkr2 -->
<g id="edge3" class="edge">
<title>msg2&#45;&gt;chkr2</title>
<path fill="none" stroke="#2563eb" stroke-width="1.9" d="M426.02,-36C426.02,-36 442.36,-36 442.36,-36"/>
<polygon fill="#2563eb" stroke="#2563eb" stroke-width="1.9" points="442.36,-38.8 450.36,-36 442.36,-33.2 442.36,-38.8"/>
</g>
<!-- closem -->
<g id="node5" class="node">
<title>closem</title>
<path fill="white" stroke="#8b5cf6" stroke-width="2" d="M716,-72C716,-72 617.6,-72 617.6,-72 611.6,-72 605.6,-66 605.6,-60 605.6,-60 605.6,-12 605.6,-12 605.6,-6 611.6,0 617.6,0 617.6,0 716,0 716,0 722,0 728,-6 728,-12 728,-12 728,-60 728,-60 728,-66 722,-72 716,-72"/>
<text text-anchor="start" x="626.67" y="-33.3" font-family="Helvetica,sans-Serif" font-weight="bold" font-size="11.00" fill="#4c1d95">close_message</text>
</g>
<!-- chkr2&#45;&gt;closem -->
<g id="edge4" class="edge">
<title>chkr2&#45;&gt;closem</title>
<path fill="none" stroke="#2563eb" stroke-width="1.9" d="M577.42,-36C577.42,-36 593.76,-36 593.76,-36"/>
<polygon fill="#2563eb" stroke="#2563eb" stroke-width="1.9" points="593.76,-38.8 601.76,-36 593.76,-33.2 593.76,-38.8"/>
</g>
</g></g><text x="142.5" y="945.6" font-family="Helvetica" font-size="12" font-weight="700" fill="#6B7280">Terminal States</text><g transform="translate(579.1,936.0)"><!-- Generated by graphviz version 12.2.1 (20241206.2353)
 -->
<!-- Title: G Pages: 1 -->

<g id="graph0" class="graph" transform="scale(1 1) rotate(0) translate(21.6 93.6)">
<title>G</title>
<!-- completed -->
<g id="node1" class="node">
<title>completed</title>
<path fill="#16a34a" stroke="#15803d" stroke-width="1.6" d="M110.4,-72C110.4,-72 12,-72 12,-72 6,-72 0,-66 0,-60 0,-60 0,-12 0,-12 0,-6 6,0 12,0 12,0 110.4,0 110.4,0 116.4,0 122.4,-6 122.4,-12 122.4,-12 122.4,-60 122.4,-60 122.4,-66 116.4,-72 110.4,-72"/>
<text text-anchor="middle" x="61.2" y="-32.3" font-family="Helvetica,sans-Serif" font-size="11.00" fill="#ffffff">COMPLETED</text>
</g>
<!-- stopped -->
<g id="node2" class="node">
<title>stopped</title>
<path fill="#dc2626" stroke="#b91c1c" stroke-width="1.6" d="M261.8,-72C261.8,-72 163.4,-72 163.4,-72 157.4,-72 151.4,-66 151.4,-60 151.4,-60 151.4,-12 151.4,-12 151.4,-6 157.4,0 163.4,0 163.4,0 261.8,0 261.8,0 267.8,0 273.8,-6 273.8,-12 273.8,-12 273.8,-60 273.8,-60 273.8,-66 267.8,-72 261.8,-72"/>
<text text-anchor="middle" x="212.6" y="-32.3" font-family="Helvetica,sans-Serif" font-size="11.00" fill="#ffffff">STOPPED</text>
</g>
<!-- completed&#45;&gt;stopped -->
</g></g><polyline points="411.1,145.6 411.1,160.6 411.1,197.6 445.3,197.6 445.3,307.6 445.3,322.6" fill="none" stroke="#2563EB" stroke-width="1.9" stroke-linejoin="round" stroke-linecap="round"/><polygon points="445.3,322.6 440.3,316.6 450.3,316.6" fill="#2563EB"/><polyline points="210.9,447.6 210.9,462.6 210.9,493.8 878.5,493.8 878.5,699.4 207.7,699.4 207.7,748.6 207.7,763.6" fill="none" stroke="#2563EB" stroke-width="1.9" stroke-linejoin="round" stroke-linecap="round"/><polygon points="207.7,763.6 202.7,757.6 212.7,757.6" fill="#2563EB"/><polyline points="813.3,835.6 813.3,850.6 813.3,903.6 661.9,903.6 661.9,942.6 661.9,957.6" fill="none" stroke="#2563EB" stroke-width="1.9" stroke-linejoin="round" stroke-linecap="round"/><polygon points="661.9,957.6 656.9,951.6 666.9,951.6" fill="#2563EB"/><polyline points="149.7,303.6 134.7,303.6 102.5,303.6 102.5,505.4 210.9,505.4 210.9,554.6 210.9,569.6" fill="none" stroke="#7C3AED" stroke-width="1.8" stroke-dasharray="5,4" stroke-linejoin="round" stroke-linecap="round"/><polygon points="210.9,569.6 205.9,563.6 215.9,563.6" fill="#7C3AED"/><polyline points="668.3,641.6 668.3,656.6 668.3,687.8 78.5,687.8 78.5,893.4 661.9,893.4 661.9,942.6 661.9,957.6" fill="none" stroke="#7C3AED" stroke-width="1.8" stroke-dasharray="5,4" stroke-linejoin="round" stroke-linecap="round"/><polygon points="661.9,957.6 656.9,951.6 666.9,951.6" fill="#7C3AED"/><polyline points="359.1,835.6 359.1,850.6 359.1,871.6 813.3,871.6 813.3,942.6 813.3,957.6" fill="none" stroke="#DC2626" stroke-width="1.8" stroke-linejoin="round" stroke-linecap="round"/><polygon points="813.3,957.6 808.3,951.6 818.3,951.6" fill="#DC2626"/><polyline points="661.9,835.6 661.9,850.6 661.9,887.6 813.3,887.6 813.3,942.6 813.3,957.6" fill="none" stroke="#DC2626" stroke-width="1.8" stroke-linejoin="round" stroke-linecap="round"/><polygon points="813.3,957.6 808.3,951.6 818.3,951.6" fill="#DC2626"/><polyline points="210.9,569.6 210.9,447.6" fill="none" stroke="#DC2626" stroke-width="1.8" stroke-linejoin="round" stroke-linecap="round"/><polygon points="210.9,447.6 215.9,453.6 205.9,453.6" fill="#DC2626"/><g><rect x="409.7" y="187.6" width="37" height="20" rx="6" fill="white" stroke="#2563EB" stroke-width="1"/><text x="428.2" y="201.6" text-anchor="middle" font-family="Helvetica" font-size="10" fill="#374151">+2d</text></g><g><rect x="560.7" y="861.6" width="51" height="20" rx="6" fill="white" stroke="#DC2626" stroke-width="1"/><text x="586.2" y="875.6" text-anchor="middle" font-family="Helvetica" font-size="10" fill="#374151">reply</text></g><g><rect x="164.4" y="498.6" width="93" height="20" rx="6" fill="white" stroke="#DC2626" stroke-width="1"/><text x="210.9" y="512.6" text-anchor="middle" font-family="Helvetica" font-size="10" fill="#374151">late accept</text></g></g>
<text x="36" y="1229.0" font-family="Helvetica" font-size="10" font-weight="700" fill="#6B7280" letter-spacing="1">LEGEND</text>
<rect x="100" y="1218.0" width="14" height="14" rx="3" fill="white" stroke="#475569" stroke-width="2"/>
<text x="120" y="1229.0" font-family="Helvetica" font-size="10" fill="#374151">Process</text>
<rect x="189" y="1218.0" width="14" height="14" rx="3" fill="white" stroke="#10B981" stroke-width="2"/>
<text x="209" y="1229.0" font-family="Helvetica" font-size="10" fill="#374151">Backend</text>
<rect x="278" y="1218.0" width="14" height="14" rx="3" fill="white" stroke="#8B5CF6" stroke-width="2"/>
<text x="298" y="1229.0" font-family="Helvetica" font-size="10" fill="#374151">Ai</text>
<rect x="332" y="1218.0" width="14" height="14" rx="3" fill="white" stroke="#EF4444" stroke-width="2"/>
<text x="352" y="1229.0" font-family="Helvetica" font-size="10" fill="#374151">Queue</text>
<rect x="407" y="1218.0" width="14" height="14" rx="3" fill="white" stroke="#6B7280" stroke-width="2"/>
<text x="427" y="1229.0" font-family="Helvetica" font-size="10" fill="#374151">External</text>
<line x1="100" y1="1247.0" x2="118" y2="1247.0" stroke="#2563EB" stroke-width="3"/>
<text x="124" y="1251.0" font-family="Helvetica" font-size="10" fill="#374151">Request / API</text>
<line x1="233" y1="1247.0" x2="251" y2="1247.0" stroke="#DC2626" stroke-width="3"/>
<text x="257" y="1251.0" font-family="Helvetica" font-size="10" fill="#374151">Event</text>
<line x1="310" y1="1247.0" x2="328" y2="1247.0" stroke="#7C3AED" stroke-width="3"/>
<text x="334" y="1251.0" font-family="Helvetica" font-size="10" fill="#374151">Async / Queue</text>
</svg>