<svg xmlns="http://www.w3.org/2000/svg" xmlns:xlink="http://www.w3.org/1999/xlink" width="1058" height="909" viewBox="0 0 1058 909">
<rect x="0" y="0" width="1058" height="909" fill="#FFFFFF"/>
<rect x="1.5" y="1.5" width="1055" height="906" rx="10" fill="none" stroke="#111111" stroke-width="3.0"/>
<text x="36" y="32" font-family="Helvetica" font-size="11" fill="#6B7280" letter-spacing="2">PIPELYT GTM · GTM/LINKEDIN/SCHEDULER.PY + SAFETY.PY</text>
<text x="36" y="64" font-family="Helvetica" font-size="22" font-weight="700" fill="#111111">LinkedIn Engine — Scheduling &amp; Dispatch</text>
<text x="36" y="82" font-family="Helvetica" font-size="12" fill="#6B7280">How a due step is picked, gated, and enqueued (EventBridge → SQS)</text>
<line x1="36" y1="96" x2="1022.0" y2="96" stroke="#E5E7EB" stroke-width="1"/>
<g transform="translate(36,106)"><text x="36.0" y="61.6" font-family="Helvetica" font-size="12" font-weight="700" fill="#D97706">Triggers &amp; Lead State</text><g transform="translate(18.4,52.0)"><!-- Generated by graphviz version 12.2.1 (20241206.2353)
 -->
<!-- Title: G Pages: 1 -->

<g id="graph0" class="graph" transform="scale(1 1) rotate(0) translate(21.6 201.6)">
<title>G</title>
<!-- enroll -->
<g id="node1" class="node">
<title>enroll</title>
<path fill="white" stroke="#10b981" stroke-width="2" d="M235.28,-72C235.28,-72 12,-72 12,-72 6,-72 0,-66 0,-60 0,-60 0,-12 0,-12 0,-6 6,0 12,0 12,0 235.28,0 235.28,0 241.28,0 247.28,-6 247.28,-12 247.28,-12 247.28,-60 247.28,-60 247.28,-66 241.28,-72 235.28,-72"/>
<text text-anchor="start" x="107.89" y="-42.55" font-family="Helvetica,sans-Serif" font-weight="bold" font-size="11.00" fill="#065f46">Enroll</text>
<text text-anchor="start" x="12.64" y="-21.95" font-family="Helvetica,sans-Serif" font-size="9.00" fill="#6b7280">/enroll or email auto&#45;enroll (combined/standard/hybrid)</text>
</g>
<!-- __lbl_0 -->
<g id="node4" class="node">
<title>__lbl_0</title>
<path fill="white" stroke="#059669" stroke-width="1.1" d="M332.43,-44.52C332.43,-44.52 281.96,-44.52 281.96,-44.52 279.12,-44.52 276.28,-41.68 276.28,-38.84 276.28,-38.84 276.28,-33.16 276.28,-33.16 276.28,-30.32 279.12,-27.48 281.96,-27.48 281.96,-27.48 332.43,-27.48 332.43,-27.48 335.27,-27.48 338.11,-30.32 338.11,-33.16 338.11,-33.16 338.11,-38.84 338.11,-38.84 338.11,-41.68 335.27,-44.52 332.43,-44.52"/>
<text text-anchor="middle" x="307.2" y="-32.5" font-family="Helvetica,sans-Serif" font-size="10.00" fill="#374151">create state</text>
</g>
<!-- enroll&#45;&gt;__lbl_0 -->
<g id="edge1" class="edge">
<title>enroll&#45;&gt;__lbl_0</title>
<path fill="none" stroke="#059669" stroke-width="1.9" d="M248.11,-36C258.21,-36 267.7,-36 276,-36"/>
</g>
<!-- eventbridge -->
<g id="node2" class="node">
<title>eventbridge</title>
<path fill="white" stroke="#d97706" stroke-width="2" d="M174.16,-180C174.16,-180 73.13,-180 73.13,-180 67.13,-180 61.13,-174 61.13,-168 61.13,-168 61.13,-120 61.13,-120 61.13,-114 67.13,-108 73.13,-108 73.13,-108 174.16,-108 174.16,-108 180.16,-108 186.16,-114 186.16,-120 186.16,-120 186.16,-168 186.16,-168 186.16,-174 180.16,-180 174.16,-180"/>
<text text-anchor="start" x="91.02" y="-150.55" font-family="Helvetica,sans-Serif" font-weight="bold" font-size="11.00" fill="#78350f">EventBridge</text>
<text text-anchor="start" x="73.77" y="-129.95" font-family="Helvetica,sans-Serif" font-size="9.00" fill="#6b7280">~5 min → /scheduler/tick</text>
</g>
<!-- leadstate -->
<g id="node3" class="node">
<title>leadstate</title>
<path fill="#fff7ed" stroke="#f97316" stroke-width="1.8" d="M574.36,-65.45C574.36,-69.07 527.91,-72 470.74,-72 413.56,-72 367.11,-69.07 367.11,-65.45 367.11,-65.45 367.11,-6.55 367.11,-6.55 367.11,-2.93 413.56,0 470.74,0 527.91,0 574.36,-2.93 574.36,-6.55 574.36,-6.55 574.36,-65.45 574.36,-65.45"/>
<path fill="none" stroke="#f97316" stroke-width="1.8" d="M574.36,-65.45C574.36,-61.84 527.91,-58.91 470.74,-58.91 413.56,-58.91 367.11,-61.84 367.11,-65.45"/>
<text text-anchor="middle" x="470.74" y="-39.05" font-family="Helvetica,sans-Serif" font-size="11.00" fill="#7c2d12">lead_state</text>
<text text-anchor="middle" x="470.74" y="-25.55" font-family="Helvetica,sans-Serif" font-size="11.00" fill="#7c2d12">step · branch · next_action_at (due&#45;key)</text>
</g>
<!-- __lbl_0&#45;&gt;leadstate -->
<g id="edge2" class="edge">
<title>__lbl_0&#45;&gt;leadstate</title>
<path fill="none" stroke="#059669" stroke-width="1.9" d="M338.34,-36C338.34,-36 355.96,-36 355.96,-36"/>
<polygon fill="#059669" stroke="#059669" stroke-width="1.9" points="355.96,-38.8 363.96,-36 355.96,-33.2 355.96,-38.8"/>
</g>
</g></g><text x="36.0" y="363.6" font-family="Helvetica" font-size="12" font-weight="700" fill="#10B981">Dispatch &amp; Safety Gate</text><g transform="translate(18.4,354.0)"><!-- Generated by graphviz version 12.2.1 (20241206.2353)
 -->
<!-- Title: G Pages: 1 -->

<g id="graph0" class="graph" transform="scale(1 1) rotate(0) translate(21.6 93.6)">
<title>G</title>
<!-- dispatch -->
<g id="node1" class="node">
<title>dispatch</title>
<path fill="white" stroke="#10b981" stroke-width="2" d="M194.03,-72C194.03,-72 12,-72 12,-72 6,-72 0,-66 0,-60 0,-60 0,-12 0,-12 0,-6 6,0 12,0 12,0 194.03,0 194.03,0 200.03,0 206.03,-6 206.03,-12 206.03,-12 206.03,-60 206.03,-60 206.03,-66 200.03,-72 194.03,-72"/>
<text text-anchor="start" x="67.76" y="-42.55" font-family="Helvetica,sans-Serif" font-weight="bold" font-size="11.00" fill="#065f46">dispatch_due</text>
<text text-anchor="start" x="12.64" y="-21.95" font-family="Helvetica,sans-Serif" font-size="9.00" fill="#6b7280">due + healthy · working hours · build content</text>
</g>
<!-- __lbl_0 -->
<g id="node4" class="node">
<title>__lbl_0</title>
<path fill="white" stroke="#0891b2" stroke-width="1.1" d="M283.35,-44.52C283.35,-44.52 240.71,-44.52 240.71,-44.52 237.87,-44.52 235.03,-41.68 235.03,-38.84 235.03,-38.84 235.03,-33.16 235.03,-33.16 235.03,-30.32 237.87,-27.48 240.71,-27.48 240.71,-27.48 283.35,-27.48 283.35,-27.48 286.19,-27.48 289.03,-30.32 289.03,-33.16 289.03,-33.16 289.03,-38.84 289.03,-38.84 289.03,-41.68 286.19,-44.52 283.35,-44.52"/>
<text text-anchor="middle" x="262.03" y="-32.5" font-family="Helvetica,sans-Serif" font-size="10.00" fill="#374151">cap ok?</text>
</g>
<!-- dispatch&#45;&gt;__lbl_0 -->
<g id="edge1" class="edge">
<title>dispatch&#45;&gt;__lbl_0</title>
<path fill="none" stroke="#0891b2" stroke-width="1.8" d="M206.86,-36C217,-36 226.55,-36 234.76,-36"/>
</g>
<!-- safety -->
<g id="node2" class="node">
<title>safety</title>
<path fill="white" stroke="#06b6d4" stroke-width="2" d="M540.56,-72C540.56,-72 330.03,-72 330.03,-72 324.03,-72 318.03,-66 318.03,-60 318.03,-60 318.03,-12 318.03,-12 318.03,-6 324.03,0 330.03,0 330.03,0 540.56,0 540.56,0 546.56,0 552.56,-6 552.56,-12 552.56,-12 552.56,-60 552.56,-60 552.56,-66 546.56,-72 540.56,-72"/>
<text text-anchor="start" x="405.29" y="-42.55" font-family="Helvetica,sans-Serif" font-weight="bold" font-size="11.00" fill="#155e75">Safety Gate</text>
<text text-anchor="start" x="330.67" y="-21.95" font-family="Helvetica,sans-Serif" font-size="9.00" fill="#6b7280">warm&#45;up ramp · daily caps · auto&#45;pause · cooldown</text>
</g>
<!-- __lbl_1 -->
<g id="node5" class="node">
<title>__lbl_1</title>
<path fill="white" stroke="#059669" stroke-width="1.1" d="M642.21,-44.52C642.21,-44.52 587.24,-44.52 587.24,-44.52 584.4,-44.52 581.56,-41.68 581.56,-38.84 581.56,-38.84 581.56,-33.16 581.56,-33.16 581.56,-30.32 584.4,-27.48 587.24,-27.48 587.24,-27.48 642.21,-27.48 642.21,-27.48 645.05,-27.48 647.89,-30.32 647.89,-33.16 647.89,-33.16 647.89,-38.84 647.89,-38.84 647.89,-41.68 645.05,-44.52 642.21,-44.52"/>
<text text-anchor="middle" x="614.73" y="-32.5" font-family="Helvetica,sans-Serif" font-size="10.00" fill="#374151">outreach age</text>
</g>
<!-- safety&#45;&gt;__lbl_1 -->
<g id="edge3" class="edge">
<title>safety&#45;&gt;__lbl_1</title>
<path fill="none" stroke="#059669" stroke-width="1.9" d="M553.48,-36C563.45,-36 572.9,-36 581.26,-36"/>
</g>
<!-- events -->
<g id="node3" class="node">
<title>events</title>
<path fill="#fff7ed" stroke="#f97316" stroke-width="1.8" d="M827.14,-65.45C827.14,-69.07 793.47,-72 752.01,-72 710.56,-72 676.89,-69.07 676.89,-65.45 676.89,-65.45 676.89,-6.55 676.89,-6.55 676.89,-2.93 710.56,0 752.01,0 793.47,0 827.14,-2.93 827.14,-6.55 827.14,-6.55 827.14,-65.45 827.14,-65.45"/>
<path fill="none" stroke="#f97316" stroke-width="1.8" d="M827.14,-65.45C827.14,-61.84 793.47,-58.91 752.01,-58.91 710.56,-58.91 676.89,-61.84 676.89,-65.45"/>
<text text-anchor="middle" x="752.01" y="-39.05" font-family="Helvetica,sans-Serif" font-size="11.00" fill="#7c2d12">events</text>
<text text-anchor="middle" x="752.01" y="-25.55" font-family="Helvetica,sans-Serif" font-size="11.00" fill="#7c2d12">read: outreach age for ramp</text>
</g>
<!-- __lbl_0&#45;&gt;safety -->
<g id="edge2" class="edge">
<title>__lbl_0&#45;&gt;safety</title>
<path fill="none" stroke="#0891b2" stroke-width="1.8" d="M289.48,-36C289.48,-36 306.41,-36 306.41,-36"/>
<polygon fill="#0891b2" stroke="#0891b2" stroke-width="1.8" points="306.41,-38.8 314.41,-36 306.41,-33.2 306.41,-38.8"/>
</g>
<!-- __lbl_1&#45;&gt;events -->
<g id="edge4" class="edge">
<title>__lbl_1&#45;&gt;events</title>
<path fill="none" stroke="#059669" stroke-width="1.9" d="M648.31,-36C648.31,-36 665.62,-36 665.62,-36"/>
<polygon fill="#059669" stroke="#059669" stroke-width="1.9" points="665.62,-38.8 673.62,-36 665.62,-33.2 665.62,-38.8"/>
</g>
</g></g><text x="36.0" y="557.6" font-family="Helvetica" font-size="12" font-weight="700" fill="#EF4444">Job &amp; Queue</text><g transform="translate(18.4,548.0)"><!-- Generated by graphviz version 12.2.1 (20241206.2353)
 -->
<!-- Title: G Pages: 1 -->

<g id="graph0" class="graph" transform="scale(1 1) rotate(0) translate(21.6 93.6)">
<title>G</title>
<!-- jobs -->
<g id="node1" class="node">
<title>jobs</title>
<path fill="#fff7ed" stroke="#f97316" stroke-width="1.8" d="M123.25,-65.45C123.25,-69.07 95.63,-72 61.62,-72 27.62,-72 0,-69.07 0,-65.45 0,-65.45 0,-6.55 0,-6.55 0,-2.93 27.62,0 61.62,0 95.63,0 123.25,-2.93 123.25,-6.55 123.25,-6.55 123.25,-65.45 123.25,-65.45"/>
<path fill="none" stroke="#f97316" stroke-width="1.8" d="M123.25,-65.45C123.25,-61.84 95.63,-58.91 61.62,-58.91 27.62,-58.91 0,-61.84 0,-65.45"/>
<text text-anchor="middle" x="61.62" y="-39.05" font-family="Helvetica,sans-Serif" font-size="11.00" fill="#7c2d12">jobs</text>
<text text-anchor="middle" x="61.62" y="-25.55" font-family="Helvetica,sans-Serif" font-size="11.00" fill="#7c2d12">durable · retries / DLQ</text>
</g>
<!-- sqs -->
<g id="node2" class="node">
<title>sqs</title>
<path fill="white" stroke="#ef4444" stroke-width="2" d="M290.78,-72C290.78,-72 164.25,-72 164.25,-72 158.25,-72 152.25,-66 152.25,-60 152.25,-60 152.25,-12 152.25,-12 152.25,-6 158.25,0 164.25,0 164.25,0 290.78,0 290.78,0 296.78,0 302.78,-6 302.78,-12 302.78,-12 302.78,-60 302.78,-60 302.78,-66 296.78,-72 290.78,-72"/>
<text text-anchor="start" x="202.01" y="-42.55" font-family="Helvetica,sans-Serif" font-weight="bold" font-size="11.00" fill="#7f1d1d">SQS FIFO</text>
<text text-anchor="start" x="164.89" y="-21.95" font-family="Helvetica,sans-Serif" font-size="9.00" fill="#6b7280">MessageGroupId = account_id</text>
</g>
<!-- jobs&#45;&gt;sqs -->
</g></g><polyline points="226.2,109.6 241.2,109.6 871.2,109.6 871.2,311.4 143.0,311.4 143.0,360.6 143.0,375.6" fill="none" stroke="#DC2626" stroke-width="1.8" stroke-linejoin="round" stroke-linecap="round"/><polygon points="143.0,375.6 138.0,369.6 148.0,369.6" fill="#DC2626"/><polyline points="143.0,375.6 143.0,360.6 143.0,297.6 510.7,297.6 510.7,268.6 510.7,253.6" fill="none" stroke="#059669" stroke-width="1.9" stroke-linejoin="round" stroke-linecap="round"/><polygon points="510.7,253.6 515.7,259.6 505.7,259.6" fill="#059669"/><polyline points="143.0,447.6 143.0,462.6 143.0,491.6 101.6,491.6 101.6,554.6 101.6,569.6" fill="none" stroke="#059669" stroke-width="1.9" stroke-linejoin="round" stroke-linecap="round"/><polygon points="101.6,569.6 96.6,563.6 106.6,563.6" fill="#059669"/><polyline points="143.0,447.6 143.0,462.6 143.0,507.6 267.5,507.6 267.5,554.6 267.5,569.6" fill="none" stroke="#7C3AED" stroke-width="1.8" stroke-dasharray="5,4" stroke-linejoin="round" stroke-linecap="round"/><polygon points="267.5,569.6 262.5,563.6 272.5,563.6" fill="#7C3AED"/><g><rect x="849.2" y="200.5" width="44" height="20" rx="6" fill="white" stroke="#DC2626" stroke-width="1"/><text x="871.2" y="214.5" text-anchor="middle" font-family="Helvetica" font-size="10" fill="#374151">tick</text></g><g><rect x="287.4" y="287.6" width="79" height="20" rx="6" fill="white" stroke="#059669" stroke-width="1"/><text x="326.9" y="301.6" text-anchor="middle" font-family="Helvetica" font-size="10" fill="#374151">claim due</text></g><g><rect x="79.3" y="481.6" width="86" height="20" rx="6" fill="white" stroke="#059669" stroke-width="1"/><text x="122.3" y="495.6" text-anchor="middle" font-family="Helvetica" font-size="10" fill="#374151">create job</text></g></g>
<text x="36" y="841.0" font-family="Helvetica" font-size="10" font-weight="700" fill="#6B7280" letter-spacing="1">LEGEND</text>
<rect x="100" y="830.0" width="14" height="14" rx="3" fill="white" stroke="#10B981" stroke-width="2"/>
<text x="120" y="841.0" font-family="Helvetica" font-size="10" fill="#374151">Backend</text>
<rect x="189" y="830.0" width="14" height="14" rx="3" fill="white" stroke="#D97706" stroke-width="2"/>
<text x="209" y="841.0" font-family="Helvetica" font-size="10" fill="#374151">Cloud</text>
<rect x="264" y="830.0" width="14" height="14" rx="3" fill="white" stroke="#F97316" stroke-width="2"/>
<text x="284" y="841.0" font-family="Helvetica" font-size="10" fill="#374151">Database</text>
<rect x="360" y="830.0" width="14" height="14" rx="3" fill="white" stroke="#06B6D4" stroke-width="2"/>
<text x="380" y="841.0" font-family="Helvetica" font-size="10" fill="#374151">Auth</text>
<rect x="428" y="830.0" width="14" height="14" rx="3" fill="white" stroke="#EF4444" stroke-width="2"/>
<text x="448" y="841.0" font-family="Helvetica" font-size="10" fill="#374151">Queue</text>
<line x1="100" y1="859.0" x2="118" y2="859.0" stroke="#059669" stroke-width="3"/>
<text x="124" y="863.0" font-family="Helvetica" font-size="10" fill="#374151">Data flow</text>
<line x1="205" y1="859.0" x2="223" y2="859.0" stroke="#DC2626" stroke-width="3"/>
<text x="229" y="863.0" font-family="Helvetica" font-size="10" fill="#374151">Event</text>
<line x1="282" y1="859.0" x2="300" y2="859.0" stroke="#0891B2" stroke-width="3"/>
<text x="306" y="863.0" font-family="Helvetica" font-size="10" fill="#374151">Auth</text>
<line x1="352" y1="859.0" x2="370" y2="859.0" stroke="#7C3AED" stroke-width="3"/>
<text x="376" y="863.0" font-family="Helvetica" font-size="10" fill="#374151">Async / Queue</text>
</svg>